# xmcd CD database file
#
# Track frame offsets:
#	150
#	18847
#	36874
#	48856
#	67273
#	90465
#	105047
#	118909
#	135416
#	150893
#	168320
#	193992
#	211614
#	219731
#
# Disc length: 3055 seconds
#
# Revision: 0
# Processed by: cddbd v1.5.2PL0 Copyright (c) Steve Scherf et al.
# Submitted via: CDex 1.51
#
DISCID=b20bed0e
DTITLE=Ray Bryant - Ray Bryant Trio Plays
DYEAR=1959
DGENRE=Jazz
TTITLE0=Doodlin'
TTITLE1=Wheatleigh Hall
TTITLE2=Delauney's Dilemma
TTITLE3=Now's The Time
TTITLE4=Blue Monk
TTITLE5=Walkin'
TTITLE6=Misty
TTITLE7=Whisper Not
TTITLE8=A Hundred Dreams From Now
TTITLE9=Sneaking Around
TTITLE10=Bag's Groove
TTITLE11=Take the "A" Train
TTITLE12=Little Susie (1)
TTITLE13=Little Susie (2)
EXTD=YEAR: 1959
EXTT0=
EXTT1=
EXTT2=
EXTT3=
EXTT4=
EXTT5=
EXTT6=
EXTT7=
EXTT8=
EXTT9=
EXTT10=
EXTT11=
EXTT12=
EXTT13=
PLAYORDER=
